<svg xmlns="http://www.w3.org/2000/svg" xmlns:xlink="http://www.w3.org/1999/xlink" viewBox="0,0,256,256" width="50px" height="50px" fill-rule="nonzero"><g fill="#00664d" fill-rule="nonzero" stroke="none" stroke-width="1" stroke-linecap="butt" stroke-linejoin="miter" stroke-miterlimit="10" stroke-dasharray="" stroke-dashoffset="0" font-family="none" font-weight="none" font-size="none" text-anchor="none" style="mix-blend-mode: normal"><g transform="scale(5.12,5.12)"><path d="M11.40625,2c-1,0 -1.89453,0.6875 -2.09375,1.6875c0,0 -5.89844,27.00781 -7,32.40625c-0.19922,1.10156 0.07422,1.69531 0.375,2.09375c0.39844,0.5 1.01172,0.8125 1.8125,0.8125h7.5l5.90625,-27.1875c0.19922,-1 1.10547,-2.8125 3.90625,-2.8125h16.1875c-1.39844,-4.60156 -5.89453,-7 -10.09375,-7zM22,11.09375l-1.59375,0.3125c-0.30078,0.19922 -0.49219,0.60547 -0.59375,0.90625l-2.40625,11.1875c0.69922,-0.30078 1.38672,-0.40625 2.1875,-0.40625h7.21875c6.39844,0 9.98828,-2.58594 11.1875,-8.1875c0.19922,-1 0.3125,-1.79297 0.3125,-2.59375l-0.125,-1.125v-0.09375zM40.09375,11.3125l0.09375,0.6875c0.10156,1 -0.08203,1.89453 -0.28125,3.09375c-1.39844,6.5 -5.91797,9.8125 -13.21875,9.8125h-7.1875c-1.60156,0 -2.69922,0.69922 -3,2c-0.39844,1.80078 -3.89844,18.29297 -4,18.59375c-0.10156,0.5 0.00781,1.1875 0.40625,1.6875c0.30078,0.39844 0.78125,0.8125 1.78125,0.8125h8c1,0 1.92578,-0.71094 2.125,-1.8125c0.89844,-3.80078 2.08594,-9.57422 2.1875,-9.875c0,-0.10156 0.09375,-0.3125 0.09375,-0.3125h5.3125c7.80078,0 13.69531,-4.6875 15.09375,-12.1875c1,-4.60156 -0.29297,-7.52344 -1.59375,-9.125c-1.80078,-2.30078 -5.11328,-3.375 -5.8125,-3.375z"></path></g></g></svg>